<svg width="18" height="18" viewBox="0 0 18 18" fill="none" xmlns="http://www.w3.org/2000/svg">
<path d="M17.6402 9.20455C17.6402 8.56818 17.5818 7.96364 17.4761 7.38H9V10.845H13.8436C13.6352 11.9727 13.0009 12.9205 12.0477 13.5614V15.8193H14.9561C16.6586 14.2523 17.6402 11.9455 17.6402 9.20455Z" fill="#4285F4"/>
<path d="M9 18C11.4302 18 13.4675 17.1955 14.9561 15.8193L12.0477 13.5614C11.2416 14.1023 10.2116 14.4205 9 14.4205C6.65591 14.4205 4.67159 12.8364 3.96432 10.71H0.957031V13.0432C2.43818 15.9886 5.48182 18 9 18Z" fill="#34A853"/>
<path d="M3.96432 10.71C3.78409 10.1705 3.675 9.59091 3.675 9C3.675 8.40909 3.78409 7.82955 3.96432 7.29H0.957031C0.347727 8.55 0 10.1705 0 11.9545C0 13.7386 0.347727 15.3591 0.957031 16.6295L3.96432 10.71Z" fill="#FBBC05"/>
<path d="M9 3.57955C10.3214 3.57955 11.5077 4.03409 12.4784 4.95227L15.0289 2.49545C13.4634 0.947727 11.4261 0 9 0C5.48182 0 2.43818 2.01136 0.957031 4.95682L3.96432 7.29C4.67159 5.16364 6.65591 3.57955 9 3.57955Z" fill="#EA4335"/>
</svg>
