<svg width="18" height="18" viewBox="0 0 18 18" fill="none" xmlns="http://www.w3.org/2000/svg">
<path d="M17.6402 9.19997C17.6402 8.56997 17.5802 7.95997 17.4702 7.36997H9.00018V10.81H13.9502C13.7602 11.82 13.2402 12.69 12.4802 13.25V15.68H15.3002C16.8602 14.25 17.6402 11.95 17.6402 9.19997Z" fill="#4285F4"/>
<path d="M9.00018 18.0001C11.4302 18.0001 13.4702 17.1901 14.8402 15.9001L12.4802 13.6601C11.7002 14.1801 10.4702 14.7001 9.00018 14.7001C6.96018 14.7001 5.22018 13.2701 4.50018 11.4601H1.58018V13.7801C2.95018 16.4201 5.79018 18.0001 9.00018 18.0001Z" fill="#34A853"/>
<path d="M4.50018 10.97C4.32018 10.45 4.20018 9.88999 4.20018 9.29999C4.20018 8.70999 4.32018 8.14999 4.50018 7.62999V5.30999H1.58018C0.950181 6.61999 0.600183 8.02999 0.600183 9.29999C0.600183 10.57 0.950181 11.98 1.58018 13.29L4.50018 10.97Z" fill="#FBBC05"/>
<path d="M9.00018 3.88002C10.6902 3.88002 11.9202 4.49002 12.4802 5.03002L14.8902 2.62002C13.4702 1.24002 11.4302 0.580017 9.00018 0.580017C5.79018 0.580017 2.95018 2.16002 1.58018 4.80002L4.50018 7.12002C5.22018 5.31002 6.96018 3.88002 9.00018 3.88002Z" fill="#EA4335"/>
</svg>
